<svg id="Layer_1" data-name="Layer 1" xmlns="http://www.w3.org/2000/svg" xmlns:xlink="http://www.w3.org/1999/xlink" viewBox="0 0 1334.78 301.92"><defs><style>.cls-1{fill:#5c5c5c;}.cls-2,.cls-3,.cls-4,.cls-5,.cls-6,.cls-7{fill-rule:evenodd;}.cls-2{fill:url(#linear-gradient);}.cls-3{fill:url(#linear-gradient-2);}.cls-4{fill:url(#linear-gradient-3);}.cls-5{fill:url(#linear-gradient-4);}.cls-6{fill:url(#linear-gradient-5);}.cls-7{fill:url(#linear-gradient-6);}</style><linearGradient id="linear-gradient" x1="-125.69" y1="458.24" x2="82.96" y2="483.86" gradientUnits="userSpaceOnUse"><stop offset="0" stop-color="#ad2421"/><stop offset="0.01" stop-color="#b42620"/><stop offset="0.07" stop-color="#cf2e1b"/><stop offset="0.11" stop-color="#df3318"/><stop offset="0.15" stop-color="#e53517"/><stop offset="0.27" stop-color="#d82f19"/><stop offset="0.57" stop-color="#bf241e"/><stop offset="0.75" stop-color="#b52020"/><stop offset="0.88" stop-color="#c71a1c"/><stop offset="1" stop-color="#db1318"/></linearGradient><linearGradient id="linear-gradient-2" x1="-125.42" y1="386.51" x2="95.39" y2="413.62" gradientUnits="userSpaceOnUse"><stop offset="0" stop-color="#05509d"/><stop offset="0" stop-color="#05519e"/><stop offset="0.08" stop-color="#0d6cb3"/><stop offset="0.15" stop-color="#117cc0"/><stop offset="0.2" stop-color="#1382c5"/><stop offset="0.21" stop-color="#1381c4"/><stop offset="0.4" stop-color="#0b6ab2"/><stop offset="0.59" stop-color="#065da7"/><stop offset="0.75" stop-color="#0458a3"/><stop offset="0.87" stop-color="#0a6ab2"/><stop offset="1" stop-color="#1285c8"/></linearGradient><linearGradient id="linear-gradient-3" x1="-122.12" y1="326.36" x2="105.7" y2="354.34" gradientUnits="userSpaceOnUse"><stop offset="0" stop-color="#b3b3b3"/><stop offset="0.2" stop-color="#d9d9d9"/><stop offset="0.36" stop-color="#d0d0d0"/><stop offset="0.62" stop-color="#b8b8b8"/><stop offset="0.77" stop-color="#a6a6a6"/><stop offset="0.83" stop-color="#acacac"/><stop offset="0.91" stop-color="#bcbcbc"/><stop offset="0.99" stop-color="#d7d7d7"/><stop offset="1" stop-color="#d9d9d9"/></linearGradient><linearGradient id="linear-gradient-4" x1="8487.29" y1="458.24" x2="8695.94" y2="483.86" gradientTransform="matrix(-1, 0, 0, 1, 8357.96, 0)" xlink:href="#linear-gradient"/><linearGradient id="linear-gradient-5" x1="8487.56" y1="386.51" x2="8708.37" y2="413.62" gradientTransform="matrix(-1, 0, 0, 1, 8357.96, 0)" xlink:href="#linear-gradient-2"/><linearGradient id="linear-gradient-6" x1="8490.86" y1="326.36" x2="8718.69" y2="354.34" gradientTransform="matrix(-1, 0, 0, 1, 8357.96, 0)" xlink:href="#linear-gradient-3"/></defs><path class="cls-1" d="M411.32,297.79h10.11l3.05,9h3.93l-9.75-28.53h-4.44l-9.68,28.53h3.81Zm3.54-11.13c.55-1.74,1-3.51,1.37-5.19h.15c.42,1.68.82,3.35,1.45,5.21l2.82,8.23h-8.6Zm42.55-5.29h-8.67v-3.13h21.1v3.13h-8.72v25.4h-3.71Zm72.17,25.71-.46-3a5.73,5.73,0,0,0,3-1.49c2.31-2.19,2.49-7.78,2.49-12.33v-12h16.75v28.53h-3.71V281.32h-9.39v8.62c0,6.25-.3,13.06-4.29,15.79A8.8,8.8,0,0,1,529.58,307.08Zm-21.13-.31H492.39V278.24H507.8v3.08H496.09v9h11v3.05h-11v10.28h12.36ZM380.14,278.24H364.2v7.28a41.64,41.64,0,0,1-1.38,12,35.21,35.21,0,0,1-2.76,6.27l-2.16.06.23,9.78H361l.23-6.82h18l.27,6.82h2.87l.27-9.78-2.5-.06Zm-3.71,25.47H363.81a31.77,31.77,0,0,0,2.38-5.43,38.86,38.86,0,0,0,1.43-11.62v-5.34h8.81Zm-99.33,3.06h-3.9V278.24h3.45v12c0,4.45-.1,8.22-.33,12l.1,0a107.15,107.15,0,0,1,5.24-9.45l9.25-14.66h3.69v28.53h-3.48V294.62c0-4.62,0-8,.32-11.6l-.11,0a90.8,90.8,0,0,1-5.28,9.59Zm55.33-8c0-4.21-4.11-5.45-7.79-5.45H323V290.5h1.68c3.76,0,6.75-2.3,6.75-5.25s-2.1-4.49-5.14-4.49a11.89,11.89,0,0,0-5.94,1.87l-1-2.72a13.49,13.49,0,0,1,7.52-2.13c4.93,0,8.39,2.57,8.39,7a7.29,7.29,0,0,1-5.84,7v.09c4,.41,6.92,3.05,6.92,7.1,0,5.93-5.15,8.29-10.38,8.29a14.75,14.75,0,0,1-7.43-1.85l1-2.88a14.09,14.09,0,0,0,6.46,1.74C330.09,304.21,332.43,301.92,332.43,298.78Zm425,8.42h0c7.21,0,13.2-5.24,13.2-15,0-8.49-5-14.43-12.86-14.43-7.62,0-13.23,5.91-13.23,15C744.62,301.37,749.91,307.2,757.46,307.2Zm.27-26.44c6.13,0,9.07,5.92,9.07,11.6,0,6.48-3.28,11.85-9.14,11.85h0c-5.78,0-9.08-5.54-9.08-11.54C748.55,286.47,751.6,280.76,757.73,280.76Zm-164.58,22.9a8.63,8.63,0,0,0,2.2-6.09c0-6.31-5.14-8.89-11-8.89a30.1,30.1,0,0,0-3.54.21V278.24H577.2v28.41a39.65,39.65,0,0,0,5.72.32C586.87,307,590.82,306.1,593.15,303.66Zm-12.3-11.85c.93-.09,2.07-.18,3-.18,4.07,0,7.65,1.7,7.65,6.16s-3.5,6.3-7.59,6.3a15.11,15.11,0,0,1-3-.18Zm138.67,12.53a7.53,7.53,0,0,0,2.48-5.72,7.31,7.31,0,0,0-5.89-7.11v-.14a6.72,6.72,0,0,0,4.83-6.24,6,6,0,0,0-2.41-5c-1.75-1.44-4.12-2.08-7.8-2.08a33.15,33.15,0,0,0-6.71.64v28a40.25,40.25,0,0,0,5.7.32C714.36,307,717.6,306.15,719.52,304.34Zm-11.81-23.23a16,16,0,0,1,3.24-.26c3.69,0,6.2,1.35,6.2,4.67,0,2.73-2.3,4.81-6.14,4.81h-3.3Zm0,12h3c4,0,7.36,1.65,7.36,5.5,0,4.16-3.48,5.52-7.3,5.52a18.79,18.79,0,0,1-3.08-.14ZM669,281.37h-8.66v-3.13h21.13v3.13h-8.73v25.4H669Zm-51,11.39c0-8.93,6-14.95,14.87-14.95a16,16,0,0,1,6.8,1.24l-.94,3.05a13.1,13.1,0,0,0-5.72-1.22c-6.69,0-11.14,4.3-11.14,11.74,0,7,4,11.42,10.94,11.42a15.11,15.11,0,0,0,6-1.18l.75,2.94a17.84,17.84,0,0,1-7.56,1.38C623.9,307.18,618,302.08,618,292.76Zm111.7,63h-20V374.2c0,13.28-.63,27.9-9.11,33.68a18.51,18.51,0,0,1-9.37,2.88l-1-6.31a12.29,12.29,0,0,0,6.4-3.24c4.89-4.69,5.34-16.63,5.34-26.37V349.21H737.6v60.86h-8ZM566.58,379c0-18.08-10.75-30.8-27.44-30.8-16.25,0-28.14,12.64-28.14,31.93,0,18.43,11.18,30.9,27.34,30.9h.06C553.87,411,566.58,399.86,566.58,379Zm-27.79,25.63h-.1c-12.36,0-19.38-11.83-19.38-24.65,0-13.17,6.48-25.36,19.56-25.36s19.42,12.62,19.42,24.75C558.29,393.17,551.22,404.64,538.79,404.64ZM678,410.07h8.39l-20.75-60.86h-9.46l-20.68,60.86h8.11L650,390.91h21.59ZM651.61,384.8l5.93-17.62c1.18-3.71,2.17-7.5,3-11h.25c.92,3.51,1.82,7.11,3.06,11.08l6,17.55ZM440.34,424.67h-6.21l-.48-14.6h-41.9V349.21h8v54.34H427.6V349.21h7.95v54.43l5.33.19Zm-89.9-75.46-20.67,60.86h8.12l6.32-19.16h21.57l6.5,19.16h8.41l-20.76-60.86Zm-4.58,35.59,5.94-17.62c1.15-3.71,2.14-7.5,3-11H355c.9,3.51,1.79,7.11,3.09,11.08l6,17.55Zm446.41,5.67c0-13.45-11-19-23.44-19a68.89,68.89,0,0,0-7.53.44V349.21h-7.84v60.66a90.65,90.65,0,0,0,12.28.73c8.37,0,16.87-1.9,21.85-7.14C790.49,400.3,792.27,396.14,792.27,390.47Zm-24.44,14a33,33,0,0,1-6.53-.45V378.19c2-.17,4.44-.35,6.45-.35,8.63,0,16.31,3.58,16.31,13.07C784.06,400.21,776.59,404.45,767.83,404.45Zm44.94,5.62h-7.95V349.21h7.95v25.45h29.4V349.21h8v60.86h-8V381.51h-29.4ZM491.22,384.15c0-9.85.1-17.06.73-24.75l-.27-.07a193.35,193.35,0,0,1-11.28,20.48l-19.07,30.26H453V349.21h7.4v25.63c0,9.55-.19,17.6-.73,25.72l.26.12a201.45,201.45,0,0,1,11.23-20.14l19.65-31.33h7.88v60.86h-7.43Zm95.68-9.49h29.41V349.21h7.94v60.86h-7.94V381.51H586.9v28.56h-8V349.21h8Zm303.63-26.45c-16.21,0-28.11,12.64-28.11,31.93,0,18.43,11.18,30.9,27.33,30.9h.06c15.46,0,28.19-11.18,28.19-32C918,360.93,907.24,348.21,890.53,348.21Zm-.35,56.43h-.08c-12.34,0-19.37-11.83-19.37-24.65,0-13.17,6.46-25.36,19.56-25.36s19.4,12.62,19.4,24.75C909.69,393.17,902.67,404.64,890.18,404.64Zm-609.07,5.43H273.2V349.21h7.91v25.45h29.43V349.21h7.94v60.86h-7.94V381.51H281.11Zm683.54-6.61v6.61H930.33V349.21h33v6.58h-25V375h23.55v6.47H938.3v21.95ZM756,454.5h7.93v60.85H756V486.8H726.57v28.55h-7.93V454.5h7.93v25.44H756Zm-78.69,0-20.68,60.85h8.11l6.33-19.15h21.58l6.49,19.15h8.39L686.78,454.5Zm-4.6,35.56,5.95-17.6c1.18-3.72,2.16-7.48,3-11h.24c.93,3.53,1.8,7.13,3.09,11.11l6,17.5Zm-36.82-7.23v-.28c6.31-2.23,10.28-7.39,10.28-13.32A12.77,12.77,0,0,0,641,458.48c-3.69-3.08-8.75-4.44-16.61-4.44a70.83,70.83,0,0,0-14.36,1.36v59.75a92.57,92.57,0,0,0,12.2.71c9.9,0,16.79-1.79,21-5.68A16.19,16.19,0,0,0,648.44,498C648.44,489,641.66,484.19,635.89,482.83ZM618,460.64a33.7,33.7,0,0,1,6.91-.54c7.93,0,13.27,2.87,13.27,9.93,0,5.87-4.88,10.29-13.09,10.29H618Zm6.56,49.11a41.67,41.67,0,0,1-6.56-.38v-23.2h6.45c8.58,0,15.7,3.52,15.7,11.73C640.11,506.76,632.63,509.75,624.52,509.75Zm224.81-1h26.31v6.61H841.38V454.5h32.91v6.57h-25v19.25h23.54v6.48H849.33ZM570.18,453.51c-16.25,0-28.14,12.64-28.14,31.95,0,18.41,11.17,30.87,27.33,30.87h.12c15.41,0,28.13-11.19,28.13-32C597.62,466.24,586.88,453.51,570.18,453.51Zm-.37,56.4h-.1c-12.34,0-19.37-11.81-19.37-24.63,0-13.2,6.49-25.4,19.56-25.4s19.42,12.68,19.42,24.75C589.32,498.44,582.28,509.91,569.81,509.91ZM817.65,454.5h7.85v60.85h-7.41V489.44c0-9.85.08-17.07.72-24.76l-.29-.07c-2.94,6.67-7.09,13.61-11.26,20.5l-19,30.24h-8.39V454.5h7.41v25.65c0,9.54-.21,17.56-.72,25.71l.25.1A207.33,207.33,0,0,1,798,485.81ZM370.75,481c-4.25-2.8-9.93-4.07-15.71-4.07a71,71,0,0,0-7.5.47V461.07h26.27V454.5H339.69v60.65a92.67,92.67,0,0,0,12.26.71c8.32,0,16.52-1.88,21.5-6.77,3.09-3.13,5-7.49,5-13.26C378.48,488.78,375.36,484,370.75,481ZM367,505c-3,3.16-7.95,4.71-12.84,4.71a36.89,36.89,0,0,1-6.57-.44V483.49c2-.21,4.54-.39,6.21-.39,4.34,0,8.51.91,11.59,3.07a11.41,11.41,0,0,1,5,9.93A12.59,12.59,0,0,1,367,505Zm56.43-45.93c-3.64-3.25-9.31-5.07-17.1-5.07a82.81,82.81,0,0,0-15,1.27v60h7.84V490.87a26.68,26.68,0,0,0,6.32.53c7.68,0,14.43-2.24,18.61-6.67,3.14-3.15,4.78-7.49,4.78-13A16.4,16.4,0,0,0,423.38,459.11Zm-17.8,26a26.52,26.52,0,0,1-6.51-.65V460.9a33.56,33.56,0,0,1,7.4-.63c8.67,0,14.36,3.88,14.36,11.91C420.83,480.49,415,485.11,405.58,485.11ZM299.8,453.51c-16.22,0-28.14,12.64-28.14,31.95,0,18.41,11.19,30.87,27.34,30.87h.08c15.44,0,28.16-11.19,28.16-32C327.24,466.24,316.49,453.51,299.8,453.51Zm-.35,56.4h-.1C287,509.91,280,498.1,280,485.28c0-13.2,6.51-25.4,19.57-25.4s19.41,12.68,19.41,24.75C318.94,498.44,311.91,509.91,299.45,509.91ZM532.9,498.63c0,12.63-11,17.7-22.11,17.7a31.46,31.46,0,0,1-15.89-4l2.1-6.17a29.82,29.82,0,0,0,13.69,3.71c8.95,0,13.93-4.87,13.93-11.52,0-9.06-8.77-11.68-16.61-11.68h-3.6v-6H508c8,0,14.36-5,14.36-11.19s-4.44-9.6-10.92-9.6c-4.62,0-9.3,1.93-12.68,4l-2.11-5.79a28.7,28.7,0,0,1,16-4.58c10.54,0,17.85,5.52,17.85,14.88,0,7.51-5.49,13.19-12.44,14.89v.21C526.59,484.38,532.9,490,532.9,498.63ZM457.56,454.5l-20.71,60.85H445l6.32-19.15H472.9l6.48,19.15h8.42L467,454.5Zm-4.62,35.56,6-17.6c1.14-3.72,2.14-7.48,2.95-11h.28c.91,3.53,1.8,7.13,3.08,11.11l6,17.5Z" transform="translate(370.13 -270.09)"/><path class="cls-2" d="M95.58,381.06C69.76,415.33-94.73,393-127.5,472.94v89.44C-109,471.71-47,466.57,12.8,456.25c36.62-6.33,63.83-14.8,73.9-31.87C90.8,409.68,95.58,381.06,95.58,381.06Z" transform="translate(370.13 -270.09)"/><path class="cls-3" d="M95.58,381.06s9-45,10.3-52.84c-18.48,38.35-188,17.32-233.38,75.23v69.49C-94.73,393,69.76,415.33,95.58,381.06Z" transform="translate(370.13 -270.09)"/><path class="cls-4" d="M105.87,328.22h0l9.23-50.45C87.16,311.78,25.88,307-57,323.86c-13.26,2.69-14.91-14.67-10.45-21.81,6.12-9.79,26.44-16.1,31.14-8.78,7.64-16.18-9.45-16.53-11.08-17.69-.8-6.78-25.38-7.82-45-.09-21.17,8.37-30.83,44.66-34,90.82-.08,1.3-.37,3.92-1.14,3.92v33.2C-82.15,345.56,87.4,366.56,105.87,328.22Z" transform="translate(370.13 -270.09)"/><path class="cls-5" d="M-350.6,381.06c25.82,34.27,190.3,11.91,223.08,91.88v89.44C-146,471.71-208,466.57-267.83,456.25c-36.62-6.33-63.82-14.8-73.88-31.87C-345.81,409.68-350.6,381.06-350.6,381.06Z" transform="translate(370.13 -270.09)"/><path class="cls-6" d="M-350.6,381.06s-9-45-10.3-52.84c18.47,38.35,188,17.32,233.38,75.23v69.49C-160.3,393-324.78,415.33-350.6,381.06Z" transform="translate(370.13 -270.09)"/><path class="cls-7" d="M-360.86,328.22h0l-9.27-50.45c28,34,89.24,29.24,172.08,46.09,13.27,2.69,14.9-14.67,10.44-21.81-6.13-9.79-26.44-16.1-31.13-8.78-7.63-16.18,9.44-16.53,11.08-17.69.79-6.78,25.37-7.82,45-.09,21.18,8.37,30.85,44.66,34,90.82.09,1.3.35,3.92,1.15,3.92v33.2C-172.89,345.56-342.4,366.56-360.86,328.22Z" transform="translate(370.13 -270.09)"/><rect class="cls-1" x="554.93" y="15.5" width="6.3" height="286.42"/></svg>